<svg width="101" height="101" viewBox="0 0 101 101" fill="none" xmlns="http://www.w3.org/2000/svg">
<circle cx="50.5" cy="50.5" r="50.5" fill="#5051F9" fill-opacity="0.05"/>
<path d="M65.0162 39.3962C64.8325 39.37 64.6487 39.37 64.465 39.3962C60.3962 39.265 57.1675 35.9312 57.1675 31.8362C57.1675 27.6625 60.5537 24.25 64.7537 24.25C68.9275 24.25 72.34 27.6362 72.34 31.8362C72.3137 35.9312 69.085 39.265 65.0162 39.3962Z" fill="#6A6BFF"/>
<path d="M73.5737 57.5875C70.6337 59.5562 66.5124 60.2912 62.7062 59.7925C63.7037 57.64 64.2287 55.2512 64.2549 52.7312C64.2549 50.1062 63.6775 47.6125 62.575 45.4337C66.46 44.9087 70.5812 45.6437 73.5475 47.6125C77.695 50.3425 77.695 54.8312 73.5737 57.5875Z" fill="#6A6BFF"/>
<path d="M35.9049 39.3962C36.0887 39.37 36.2724 39.37 36.4562 39.3962C40.5249 39.265 43.7537 35.9312 43.7537 31.8362C43.7537 27.6362 40.3674 24.25 36.1674 24.25C31.9937 24.25 28.6074 27.6362 28.6074 31.8362C28.6074 35.9312 31.8362 39.265 35.9049 39.3962Z" fill="#6A6BFF"/>
<path d="M36.1937 52.7312C36.1937 55.2775 36.7449 57.6925 37.7424 59.8712C34.0412 60.265 30.1824 59.4775 27.3474 57.6137C23.1999 54.8575 23.1999 50.3687 27.3474 47.6125C30.1562 45.7225 34.1199 44.9612 37.8474 45.3812C36.7712 47.5862 36.1937 50.08 36.1937 52.7312Z" fill="#6A6BFF"/>
<path d="M50.8151 60.6587C50.6051 60.6325 50.3688 60.6325 50.1326 60.6587C45.3026 60.5012 41.4438 56.5375 41.4438 51.655C41.4701 46.6675 45.4863 42.625 50.5001 42.625C55.4876 42.625 59.5301 46.6675 59.5301 51.655C59.5038 56.5375 55.6713 60.5012 50.8151 60.6587Z" fill="#6A6BFF"/>
<path d="M42.2838 66.0925C38.3201 68.7437 38.3201 73.1012 42.2838 75.7262C46.7988 78.745 54.2014 78.745 58.7164 75.7262C62.6801 73.075 62.6801 68.7175 58.7164 66.0925C54.2276 63.0737 46.8251 63.0737 42.2838 66.0925Z" fill="#6A6BFF"/>
</svg>
