<svg width="28" height="28" viewBox="0 0 28 28" fill="none" xmlns="http://www.w3.org/2000/svg">
<path d="M25.6666 24.7917H24.2083V12.8333C24.2083 10.01 22.6566 8.45833 19.8333 8.45833H14.8749V7.02333C15.5516 7.18666 16.2283 7.28 16.9166 7.28C18.0133 7.28 19.1099 7.07 20.1599 6.65C20.4866 6.52166 20.7083 6.195 20.7083 5.83333V2.33333C20.7083 2.04166 20.5683 1.77333 20.3233 1.61C20.0783 1.44666 19.7749 1.41166 19.5066 1.51666C17.8383 2.18166 15.9949 2.18166 14.3266 1.51666C14.0583 1.41166 13.7549 1.44666 13.5099 1.61C13.2649 1.77333 13.1249 2.04166 13.1249 2.33333V5.83333V8.45833H8.16658C5.34325 8.45833 3.79159 10.01 3.79159 12.8333V24.7917H2.33325C1.85492 24.7917 1.45825 25.1883 1.45825 25.6667C1.45825 26.145 1.85492 26.5417 2.33325 26.5417H4.66659H23.3333H25.6666C26.1449 26.5417 26.5416 26.145 26.5416 25.6667C26.5416 25.1883 26.1449 24.7917 25.6666 24.7917ZM8.44658 24.7917H5.54158V14.875H8.44658V24.7917ZM13.1133 24.7917H10.1966V14.875H13.1133V24.7917ZM17.7799 24.7917H14.8633V14.875H17.7799V24.7917ZM22.4583 24.7917H19.5299V14.875H22.4583V24.7917Z" fill="#8D98B3"/>
</svg>
