<svg width="28" height="28" viewBox="0 0 28 28" fill="none" xmlns="http://www.w3.org/2000/svg">
<path d="M19.8333 4.08331H8.16658C4.66659 4.08331 2.33325 5.83331 2.33325 9.91665V18.0833C2.33325 22.1666 4.66659 23.9166 8.16658 23.9166H19.8333C23.3333 23.9166 25.6666 22.1666 25.6666 18.0833V9.91665C25.6666 5.83331 23.3333 4.08331 19.8333 4.08331ZM20.3816 11.1883L16.7299 14.105C15.9599 14.7233 14.9799 15.0266 13.9999 15.0266C13.0199 15.0266 12.0283 14.7233 11.2699 14.105L7.61825 11.1883C7.24492 10.885 7.18658 10.325 7.47825 9.95165C7.78158 9.57831 8.32992 9.50831 8.70325 9.81165L12.3549 12.7283C13.2416 13.44 14.7466 13.44 15.6333 12.7283L19.2849 9.81165C19.6583 9.50831 20.2183 9.56665 20.5099 9.95165C20.8133 10.325 20.7549 10.885 20.3816 11.1883Z" fill="#8D98B3"/>
</svg>
