<svg width="101" height="101" viewBox="0 0 101 101" fill="none" xmlns="http://www.w3.org/2000/svg">
<circle cx="50.5" cy="50.5" r="50.5" fill="#5051F9" fill-opacity="0.05"/>
<path d="M74.3612 37.3225C72.13 34.855 68.4025 33.6212 62.995 33.6212H62.365V33.5162C62.365 29.1062 62.365 23.6462 52.495 23.6462H48.505C38.635 23.6462 38.635 29.1325 38.635 33.5162V33.6475H38.005C32.5712 33.6475 28.87 34.8812 26.6387 37.3487C24.04 40.2362 24.1187 44.1212 24.3812 46.7725L24.4075 46.9562L24.6474 49.4758C24.6617 49.6255 24.7419 49.7604 24.8674 49.8433C25.3763 50.1793 26.7457 51.0757 27.505 51.4975C27.8725 51.7337 28.2662 51.9437 28.66 52.1537C33.1487 54.6212 38.0837 56.275 43.0975 57.0887C43.3337 59.5562 44.41 62.4437 50.1587 62.4437C55.9075 62.4437 57.0362 59.5825 57.22 57.0362C62.575 56.17 67.7462 54.3062 72.4187 51.5762C72.5762 51.4975 72.6812 51.4187 72.8125 51.34C73.9562 50.6936 75.147 49.8823 76.2064 49.1069C76.3189 49.0246 76.3912 48.8987 76.4066 48.7602L76.4875 48.0325L76.6187 46.7987C76.645 46.6412 76.645 46.51 76.6712 46.3262C76.8812 43.675 76.8287 40.0525 74.3612 37.3225ZM53.3612 55.3037C53.3612 58.0862 53.3612 58.5062 50.1325 58.5062C46.9037 58.5062 46.9037 58.0075 46.9037 55.33V52.0225H53.3612V55.3037ZM42.3887 33.6212V33.5162C42.3887 29.0537 42.3887 27.4 48.505 27.4H52.495C58.6112 27.4 58.6112 29.08 58.6112 33.5162V33.6475H42.3887V33.6212Z" fill="#6A6BFF"/>
<path d="M75.1101 54.4185C75.4622 54.2472 75.8644 54.5287 75.829 54.9186L74.7551 66.7488C74.2038 71.9988 72.0513 77.3537 60.5013 77.3537H40.4988C28.9488 77.3537 26.7963 71.9988 26.2451 66.775L25.2219 55.5197C25.1868 55.1342 25.5797 54.853 25.931 55.0154C28.3383 56.1288 35.6672 59.4417 39.5809 60.3634C39.7462 60.4023 39.878 60.5194 39.9425 60.6766C41.4466 64.3454 44.9747 66.3025 50.1588 66.3025C55.2916 66.3025 58.8687 64.2702 60.3751 60.598C60.4396 60.4407 60.5713 60.3237 60.7368 60.2848C64.8804 59.3094 72.6126 55.6341 75.1101 54.4185Z" fill="#6A6BFF"/>
</svg>
