<svg width="24" height="24" viewBox="0 0 24 24" fill="none" xmlns="http://www.w3.org/2000/svg">
<path d="M1.63641 21.3613H5.45456V12.0886L0 7.99765V19.725C0 20.6291 0.732281 21.3614 1.63641 21.3614V21.3613Z" fill="#4285F4"/>
<path d="M18.5454 21.3613H22.3636C23.2677 21.3613 24 20.629 24 19.7249V7.99765L18.5454 12.0886V21.3613Z" fill="#34A853"/>
<path d="M18.5454 4.99766V12.0886L24 7.99766V5.81586C24 3.79358 21.6914 2.63858 20.0727 3.85222L18.5454 4.99766Z" fill="#FBBC04"/>
<path fill-rule="evenodd" clip-rule="evenodd" d="M5.45459 12.0886V4.99765L12 9.90678L18.5455 4.99765V12.0886L12 16.9977L5.45459 12.0886Z" fill="#EA4335"/>
<path d="M0 5.81587V7.99766L5.45456 12.0886V4.99766L3.92728 3.85223C2.30859 2.63859 0 3.79359 0 5.81577V5.81587Z" fill="#C5221F"/>
</svg>
