<svg width="86" height="25" viewBox="0 0 86 25" fill="none" xmlns="http://www.w3.org/2000/svg">
<path d="M1.63641 22.3613H5.45456V13.0886L0 8.99765V20.725C0 21.6291 0.732281 22.3614 1.63641 22.3614V22.3613Z" fill="#4285F4"/>
<path d="M18.5454 22.3613H22.3636C23.2677 22.3613 24 21.629 24 20.7249V8.99765L18.5454 13.0886V22.3613Z" fill="#34A853"/>
<path d="M18.5454 5.99766V13.0886L24 8.99766V6.81586C24 4.79358 21.6914 3.63858 20.0727 4.85222L18.5454 5.99766Z" fill="#FBBC04"/>
<path fill-rule="evenodd" clip-rule="evenodd" d="M5.45459 13.0886V5.99765L12 10.9068L18.5455 5.99765V13.0886L12 17.9977L5.45459 13.0886Z" fill="#EA4335"/>
<path d="M0 6.81587V8.99766L5.45456 13.0886V5.99766L3.92728 4.85223C2.30859 3.63859 0 4.79359 0 6.81577V6.81587Z" fill="#C5221F"/>
<path d="M42.2911 10.08C41.9818 9.42933 41.5338 8.928 40.9471 8.576C40.3604 8.21333 39.6778 8.032 38.8991 8.032C38.1204 8.032 37.4164 8.21333 36.7871 8.576C36.1684 8.928 35.6778 9.44 35.3151 10.112C34.9631 10.7733 34.7871 11.5413 34.7871 12.416C34.7871 13.2907 34.9631 14.0587 35.3151 14.72C35.6778 15.3813 36.1684 15.8933 36.7871 16.256C37.4164 16.608 38.1204 16.784 38.8991 16.784C39.9871 16.784 40.8831 16.4587 41.5871 15.808C42.2911 15.1573 42.7018 14.2773 42.8191 13.168H38.3711V11.984H44.3711V13.104C44.2858 14.0213 43.9978 14.864 43.5071 15.632C43.0164 16.3893 42.3711 16.992 41.5711 17.44C40.7711 17.8773 39.8804 18.096 38.8991 18.096C37.8644 18.096 36.9204 17.856 36.0671 17.376C35.2138 16.8853 34.5364 16.208 34.0351 15.344C33.5444 14.48 33.2991 13.504 33.2991 12.416C33.2991 11.328 33.5444 10.352 34.0351 9.488C34.5364 8.61333 35.2138 7.936 36.0671 7.456C36.9204 6.96533 37.8644 6.72 38.8991 6.72C40.0831 6.72 41.1284 7.01333 42.0351 7.6C42.9524 8.18667 43.6191 9.01333 44.0351 10.08H42.2911ZM56.8402 9.072C57.5229 9.072 58.1309 9.216 58.6642 9.504C59.1975 9.78133 59.6189 10.2027 59.9282 10.768C60.2375 11.3333 60.3922 12.0213 60.3922 12.832V18H58.9522V13.04C58.9522 12.1653 58.7335 11.4987 58.2962 11.04C57.8695 10.5707 57.2882 10.336 56.5522 10.336C55.7949 10.336 55.1922 10.5813 54.7442 11.072C54.2962 11.552 54.0722 12.2507 54.0722 13.168V18H52.6322V13.04C52.6322 12.1653 52.4135 11.4987 51.9762 11.04C51.5495 10.5707 50.9682 10.336 50.2322 10.336C49.4749 10.336 48.8722 10.5813 48.4242 11.072C47.9762 11.552 47.7522 12.2507 47.7522 13.168V18H46.2962V9.232H47.7522V10.496C48.0402 10.0373 48.4242 9.68533 48.9042 9.44C49.3949 9.19467 49.9335 9.072 50.5202 9.072C51.2562 9.072 51.9069 9.23733 52.4722 9.568C53.0375 9.89867 53.4589 10.384 53.7362 11.024C53.9815 10.4053 54.3869 9.92533 54.9522 9.584C55.5175 9.24267 56.1469 9.072 56.8402 9.072ZM62.2366 13.584C62.2366 12.688 62.4179 11.904 62.7806 11.232C63.1433 10.5493 63.6393 10.0213 64.2686 9.648C64.9086 9.27467 65.6179 9.088 66.3966 9.088C67.1646 9.088 67.8313 9.25333 68.3966 9.584C68.9619 9.91467 69.3833 10.3307 69.6606 10.832V9.232H71.1326V18H69.6606V16.368C69.3726 16.88 68.9406 17.3067 68.3646 17.648C67.7993 17.9787 67.1379 18.144 66.3806 18.144C65.6019 18.144 64.8979 17.952 64.2686 17.568C63.6393 17.184 63.1433 16.6453 62.7806 15.952C62.4179 15.2587 62.2366 14.4693 62.2366 13.584ZM69.6606 13.6C69.6606 12.9387 69.5273 12.3627 69.2606 11.872C68.9939 11.3813 68.6313 11.008 68.1726 10.752C67.7246 10.4853 67.2286 10.352 66.6846 10.352C66.1406 10.352 65.6446 10.48 65.1966 10.736C64.7486 10.992 64.3913 11.3653 64.1246 11.856C63.8579 12.3467 63.7246 12.9227 63.7246 13.584C63.7246 14.256 63.8579 14.8427 64.1246 15.344C64.3913 15.8347 64.7486 16.2133 65.1966 16.48C65.6446 16.736 66.1406 16.864 66.6846 16.864C67.2286 16.864 67.7246 16.736 68.1726 16.48C68.6313 16.2133 68.9939 15.8347 69.2606 15.344C69.5273 14.8427 69.6606 14.2613 69.6606 13.6ZM74.3451 7.808C74.0678 7.808 73.8331 7.712 73.6411 7.52C73.4491 7.328 73.3531 7.09333 73.3531 6.816C73.3531 6.53867 73.4491 6.304 73.6411 6.112C73.8331 5.92 74.0678 5.824 74.3451 5.824C74.6118 5.824 74.8358 5.92 75.0171 6.112C75.2091 6.304 75.3051 6.53867 75.3051 6.816C75.3051 7.09333 75.2091 7.328 75.0171 7.52C74.8358 7.712 74.6118 7.808 74.3451 7.808ZM75.0491 9.232V18H73.5931V9.232H75.0491ZM78.9866 6.16V18H77.5306V6.16H78.9866Z" fill="#4F4F4F"/>
</svg>
