<svg width="28" height="28" viewBox="0 0 28 28" fill="none" xmlns="http://www.w3.org/2000/svg">
<path d="M14.0001 20.2417C15.0503 20.2417 15.9017 19.3903 15.9017 18.34C15.9017 17.2898 15.0503 16.4384 14.0001 16.4384C12.9498 16.4384 12.0984 17.2898 12.0984 18.34C12.0984 19.3903 12.9498 20.2417 14.0001 20.2417Z" fill="#8D98B3"/>
<path d="M21.3266 11.1183V9.65998C21.3266 6.50998 20.5683 2.33331 13.9999 2.33331C7.43158 2.33331 6.67325 6.50998 6.67325 9.65998V11.1183C3.40659 11.5266 2.33325 13.1833 2.33325 17.255V19.425C2.33325 24.2083 3.79159 25.6666 8.57492 25.6666H19.4249C24.2083 25.6666 25.6666 24.2083 25.6666 19.425V17.255C25.6666 13.1833 24.5933 11.5266 21.3266 11.1183ZM13.9999 21.8633C12.0516 21.8633 10.4766 20.2766 10.4766 18.34C10.4766 16.3916 12.0633 14.8166 13.9999 14.8166C15.9366 14.8166 17.5233 16.4033 17.5233 18.34C17.5233 20.2883 15.9483 21.8633 13.9999 21.8633ZM8.57492 11.0133C8.48159 11.0133 8.39992 11.0133 8.30658 11.0133V9.65998C8.30658 6.24165 9.27492 3.96665 13.9999 3.96665C18.7249 3.96665 19.6933 6.24165 19.6933 9.65998V11.025C19.5999 11.025 19.5183 11.025 19.4249 11.025H8.57492V11.0133Z" fill="#8D98B3"/>
</svg>
