<svg width="28" height="28" viewBox="0 0 28 28" fill="none" xmlns="http://www.w3.org/2000/svg">
<path d="M25.6666 14C25.6666 7.57165 20.4283 2.33331 13.9999 2.33331C7.57158 2.33331 2.33325 7.57165 2.33325 14C2.33325 17.3833 3.79159 20.4283 6.10159 22.5633C6.10159 22.575 6.10158 22.575 6.08992 22.5866C6.20658 22.7033 6.34659 22.7966 6.46325 22.9016C6.53325 22.96 6.59159 23.0183 6.66159 23.065C6.87159 23.24 7.10492 23.4033 7.32659 23.5666C7.40825 23.625 7.47825 23.6716 7.55992 23.73C7.78159 23.8816 8.01492 24.0216 8.25992 24.15C8.34159 24.1966 8.43492 24.255 8.51659 24.3016C8.74992 24.43 8.99492 24.5466 9.25159 24.6516C9.34492 24.6983 9.43825 24.745 9.53159 24.78C9.78825 24.885 10.0449 24.9783 10.3016 25.06C10.3949 25.095 10.4883 25.13 10.5816 25.1533C10.8616 25.235 11.1416 25.305 11.4216 25.375C11.5033 25.3983 11.5849 25.4216 11.6783 25.4333C12.0049 25.5033 12.3316 25.55 12.6699 25.585C12.7166 25.585 12.7633 25.5966 12.8099 25.6083C13.2066 25.6433 13.6033 25.6666 13.9999 25.6666C14.3966 25.6666 14.7933 25.6433 15.1783 25.6083C15.2249 25.6083 15.2716 25.5966 15.3183 25.585C15.6566 25.55 15.9833 25.5033 16.3099 25.4333C16.3916 25.4216 16.4733 25.3866 16.5666 25.375C16.8466 25.305 17.1383 25.2466 17.4066 25.1533C17.4999 25.1183 17.5933 25.0833 17.6866 25.06C17.9433 24.9666 18.2116 24.885 18.4566 24.78C18.5499 24.745 18.6433 24.6983 18.7366 24.6516C18.9816 24.5466 19.2266 24.43 19.4716 24.3016C19.5649 24.255 19.6466 24.1966 19.7283 24.15C19.9616 24.01 20.1949 23.8816 20.4283 23.73C20.5099 23.6833 20.5799 23.625 20.6616 23.5666C20.8949 23.4033 21.1166 23.24 21.3266 23.065C21.3966 23.0066 21.4549 22.9483 21.5249 22.9016C21.6533 22.7966 21.7816 22.6916 21.8983 22.5866C21.8983 22.575 21.8983 22.575 21.8866 22.5633C24.2083 20.4283 25.6666 17.3833 25.6666 14ZM19.7633 19.7983C16.6016 17.675 11.4216 17.675 8.23659 19.7983C7.72325 20.1366 7.30325 20.5333 6.95325 20.965C5.17992 19.1683 4.08325 16.7066 4.08325 14C4.08325 8.52831 8.52825 4.08331 13.9999 4.08331C19.4716 4.08331 23.9166 8.52831 23.9166 14C23.9166 16.7066 22.8199 19.1683 21.0466 20.965C20.7083 20.5333 20.2766 20.1366 19.7633 19.7983Z" fill="#8D98B3"/>
<path d="M14 8.08502C11.585 8.08502 9.625 10.045 9.625 12.46C9.625 14.8284 11.48 16.7534 13.9417 16.8234C13.9767 16.8234 14.0233 16.8234 14.0467 16.8234C14.07 16.8234 14.105 16.8234 14.1283 16.8234C14.14 16.8234 14.1517 16.8234 14.1517 16.8234C16.5083 16.7417 18.3633 14.8284 18.375 12.46C18.375 10.045 16.415 8.08502 14 8.08502Z" fill="#8D98B3"/>
</svg>
