<svg width="50" height="50" viewBox="0 0 50 50" fill="none" xmlns="http://www.w3.org/2000/svg">
<path d="M24.9998 4.16666C13.4998 4.16666 4.1665 13.5 4.1665 25C4.1665 36.5 13.4998 45.8333 24.9998 45.8333C36.4998 45.8333 45.8332 36.5 45.8332 25C45.8332 13.5 36.4998 4.16666 24.9998 4.16666ZM17.7707 28.0625C18.3748 28.6667 18.3748 29.6667 17.7707 30.2708C17.4582 30.5833 17.0623 30.7292 16.6665 30.7292C16.2707 30.7292 15.8748 30.5833 15.5623 30.2708L11.3957 26.1042C10.7915 25.5 10.7915 24.5 11.3957 23.8958L15.5623 19.7292C16.1665 19.125 17.1665 19.125 17.7707 19.7292C18.3748 20.3333 18.3748 21.3333 17.7707 21.9375L14.7082 25L17.7707 28.0625ZM28.5207 20.75L24.354 30.4792C24.104 31.0625 23.5207 31.4167 22.9165 31.4167C22.7082 31.4167 22.4998 31.375 22.3123 31.2917C21.5207 30.9583 21.1457 30.0417 21.4998 29.2292L25.6665 19.5C25.9998 18.7083 26.9165 18.3333 27.7082 18.6875C28.4998 19.0417 28.854 19.9583 28.5207 20.75ZM38.604 26.1042L34.4373 30.2708C34.1248 30.5833 33.729 30.7292 33.3332 30.7292C32.9373 30.7292 32.5415 30.5833 32.229 30.2708C31.6248 29.6667 31.6248 28.6667 32.229 28.0625L35.2915 25L32.229 21.9375C31.6248 21.3333 31.6248 20.3333 32.229 19.7292C32.8332 19.125 33.8332 19.125 34.4373 19.7292L38.604 23.8958C39.2082 24.5 39.2082 25.5 38.604 26.1042Z" fill="#6A6BFF"/>
</svg>
