<svg width="50" height="50" viewBox="0 0 50 50" fill="none" xmlns="http://www.w3.org/2000/svg">
<path d="M43.8335 27.6667L41.9168 25.7917L25.771 41.9167L27.7085 43.8542C29.3335 45.4792 31.021 46.2917 32.6877 46.2917C34.3543 46.2917 36.0418 45.4792 37.6668 43.8542L43.8335 37.6875C47.146 34.3542 47.146 31 43.8335 27.6667Z" fill="#6A6BFF"/>
<path d="M22.2707 6.10416C18.9998 2.83333 15.5623 2.83333 12.2915 6.10416L6.104 12.2708C2.854 15.5417 2.854 18.9792 6.104 22.25L8.02067 24.1667L24.1665 8.02083L22.2707 6.10416Z" fill="#6A6BFF"/>
<path d="M45.4373 8.20833C42.7082 15.0208 36.479 23.9167 30.5415 29.7292C29.6873 24.3542 25.3957 20.1458 19.979 19.3958C25.8123 13.4375 34.7707 7.125 41.604 4.375C42.8123 3.91666 44.0207 4.27083 44.7707 5.02083C45.5623 5.8125 45.9373 7 45.4373 8.20833Z" fill="#6A6BFF"/>
<path d="M28.7083 31.4375C28.2917 31.7917 27.875 32.1458 27.4583 32.4792L23.7292 35.4583C23.7292 35.3958 23.7083 35.3125 23.7083 35.2292C23.4167 33 22.375 30.9375 20.6875 29.25C18.9792 27.5417 16.8542 26.5 14.5208 26.2083C14.4583 26.2083 14.375 26.1875 14.3125 26.1875L17.3333 22.375C17.625 22 17.9375 21.6458 18.2708 21.2708L19.6875 21.4583C24.1667 22.0833 27.7708 25.6042 28.4792 30.0625L28.7083 31.4375Z" fill="#6A6BFF"/>
<path d="M21.729 36.7083C21.729 39 20.854 41.1875 19.1873 42.8333C17.9165 44.125 16.2082 45 14.1248 45.25L9.02067 45.8125C6.229 46.125 3.83317 43.7292 4.14567 40.9167L4.70817 35.7917C5.20817 31.2292 9.02067 28.3125 13.0623 28.2292C13.4582 28.2083 13.8957 28.2292 14.3123 28.2708C16.0832 28.5 17.7915 29.3125 19.229 30.7292C20.6248 32.125 21.4165 33.7708 21.6457 35.5C21.6873 35.9167 21.729 36.3125 21.729 36.7083Z" fill="#6A6BFF"/>
</svg>
