<svg width="50" height="54" viewBox="0 0 50 54" fill="none" xmlns="http://www.w3.org/2000/svg">
<g filter="url(#filter0_d_44_112)">
<path d="M43.75 45.8333H6.25C5.39583 45.8333 4.6875 45.125 4.6875 44.2708C4.6875 43.4167 5.39583 42.7083 6.25 42.7083H43.75C44.6042 42.7083 45.3125 43.4167 45.3125 44.2708C45.3125 45.125 44.6042 45.8333 43.75 45.8333Z" fill="#6A6BFF"/>
<path d="M39.6252 7.25C35.5835 3.20834 31.6252 3.10417 27.4794 7.25L24.9585 9.77084C24.7502 9.97917 24.6669 10.3125 24.7502 10.6042C26.3335 16.125 30.7502 20.5417 36.271 22.125C36.3544 22.1458 36.4377 22.1667 36.521 22.1667C36.7502 22.1667 36.9585 22.0833 37.1252 21.9167L39.6252 19.3958C41.6877 17.3542 42.6877 15.375 42.6877 13.375C42.7085 11.3125 41.7085 9.3125 39.6252 7.25Z" fill="#6A6BFF"/>
<path d="M32.5208 24.0208C31.9167 23.7292 31.3333 23.4375 30.7708 23.1042C30.3125 22.8333 29.875 22.5417 29.4375 22.2292C29.0833 22 28.6667 21.6667 28.2708 21.3333C28.2292 21.3125 28.0833 21.1875 27.9167 21.0208C27.2292 20.4375 26.4583 19.6875 25.7708 18.8542C25.7083 18.8125 25.6042 18.6667 25.4583 18.4792C25.25 18.2292 24.8958 17.8125 24.5833 17.3333C24.3333 17.0208 24.0417 16.5625 23.7708 16.1042C23.4375 15.5417 23.1458 14.9792 22.8542 14.3958C22.685 14.0333 22.5369 13.6778 22.4016 13.3334C22.2684 12.9941 21.8312 12.8979 21.5735 13.1557L9.04168 25.6875C8.77085 25.9583 8.52085 26.4792 8.45835 26.8333L7.33335 34.8125C7.12501 36.2292 7.52085 37.5625 8.39585 38.4583C9.14585 39.1875 10.1875 39.5833 11.3125 39.5833C11.5625 39.5833 11.8125 39.5625 12.0625 39.5208L20.0625 38.3958C20.4375 38.3333 20.9583 38.0833 21.2083 37.8125L33.733 25.2878C33.9925 25.0283 33.8937 24.5856 33.5524 24.4505C33.2187 24.3184 32.8801 24.1765 32.5208 24.0208Z" fill="#6A6BFF"/>
</g>
<defs>
<filter id="filter0_d_44_112" x="-4" y="0" width="58" height="58" filterUnits="userSpaceOnUse" color-interpolation-filters="sRGB">
<feFlood flood-opacity="0" result="BackgroundImageFix"/>
<feColorMatrix in="SourceAlpha" type="matrix" values="0 0 0 0 0 0 0 0 0 0 0 0 0 0 0 0 0 0 127 0" result="hardAlpha"/>
<feOffset dy="4"/>
<feGaussianBlur stdDeviation="2"/>
<feComposite in2="hardAlpha" operator="out"/>
<feColorMatrix type="matrix" values="0 0 0 0 0 0 0 0 0 0 0 0 0 0 0 0 0 0 0.25 0"/>
<feBlend mode="normal" in2="BackgroundImageFix" result="effect1_dropShadow_44_112"/>
<feBlend mode="normal" in="SourceGraphic" in2="effect1_dropShadow_44_112" result="shape"/>
</filter>
</defs>
</svg>
