<svg width="50" height="50" viewBox="0 0 50 50" fill="none" xmlns="http://www.w3.org/2000/svg">
<path d="M30.9377 8.22917V16.1458H27.8127V8.22917C27.8127 7.66667 27.3127 7.39584 26.9793 7.39584C26.8752 7.39584 26.771 7.41667 26.6668 7.45834L10.146 13.6875C9.04183 14.1042 8.3335 15.1458 8.3335 16.3333V17.7292C6.43766 19.1458 5.2085 21.4167 5.2085 23.9792V16.3333C5.2085 13.8542 6.72933 11.6458 9.04183 10.7708L25.5835 4.52084C26.0418 4.35417 26.521 4.27084 26.9793 4.27084C29.0627 4.27084 30.9377 5.95834 30.9377 8.22917Z" fill="#6A6BFF"/>
<path d="M44.7918 30.2083V32.2917C44.7918 32.8542 44.3543 33.3125 43.7709 33.3333H40.7293C39.6251 33.3333 38.6251 32.5208 38.5418 31.4375C38.4793 30.7917 38.7293 30.1875 39.1459 29.7708C39.5209 29.375 40.0418 29.1667 40.6043 29.1667H43.7501C44.3543 29.1875 44.7918 29.6458 44.7918 30.2083Z" fill="#6A6BFF"/>
<path d="M40.5835 26.9792H42.7085C43.8543 26.9792 44.7918 26.0417 44.7918 24.8958V23.9792C44.7918 19.6667 41.271 16.1458 36.9585 16.1458H13.0418C11.271 16.1458 9.646 16.7292 8.3335 17.7292C6.43766 19.1458 5.2085 21.4167 5.2085 23.9792V38C5.2085 42.3125 8.72933 45.8333 13.0418 45.8333H36.9585C41.271 45.8333 44.7918 42.3125 44.7918 38V37.6042C44.7918 36.4583 43.8543 35.5208 42.7085 35.5208H40.896C38.896 35.5208 36.9793 34.2917 36.4585 32.3542C36.021 30.7708 36.5418 29.25 37.5835 28.2292C38.3543 27.4375 39.4168 26.9792 40.5835 26.9792ZM29.1668 26.5625H14.5835C13.7293 26.5625 13.021 25.8542 13.021 25C13.021 24.1458 13.7293 23.4375 14.5835 23.4375H29.1668C30.021 23.4375 30.7293 24.1458 30.7293 25C30.7293 25.8542 30.021 26.5625 29.1668 26.5625Z" fill="#6A6BFF"/>
</svg>
