<svg width="44" height="44" viewBox="0 0 44 44" fill="none" xmlns="http://www.w3.org/2000/svg">
<path fill-rule="evenodd" clip-rule="evenodd" d="M9.40801 3.95765C7.83428 5.05805 6.41121 6.35908 5.17585 7.82363C10.2241 7.35496 16.6377 8.12025 24.0838 11.8434C32.0353 15.819 38.4381 15.9534 42.8943 15.0939C42.4899 13.8697 41.9808 12.6932 41.3779 11.5747C36.2768 12.1126 29.7374 11.4004 22.1161 7.58997C17.2765 5.1702 13.0106 4.1734 9.40801 3.95765ZM38.3981 7.33331C34.3698 2.83249 28.5157 0 21.9999 0C20.0865 0 18.23 0.244318 16.46 0.703424C18.8571 1.35749 21.4036 2.31438 24.0838 3.65449C29.6637 6.44437 34.481 7.34268 38.3981 7.33331ZM43.847 19.3909C38.4635 20.4539 31.0297 20.2356 22.1161 15.7789C13.7829 11.6122 7.15048 11.6647 2.67728 12.6588C2.4464 12.7101 2.22095 12.7639 2.00093 12.8201C1.41529 14.0937 0.947797 15.433 0.612373 16.8239C0.970625 16.7283 1.34082 16.6372 1.72277 16.5524C7.14953 15.3464 14.817 15.3987 24.0838 20.0322C32.4171 24.1988 39.0496 24.1463 43.5227 23.1522C43.676 23.1182 43.8271 23.0831 43.9756 23.0467C43.9918 22.6999 44 22.3509 44 22C44 21.1173 43.948 20.2465 43.847 19.3909ZM43.2572 27.6896C37.9261 28.6216 30.7086 28.2638 22.1161 23.9676C13.7829 19.8011 7.15048 19.8535 2.67728 20.8476C1.68438 21.0682 0.791163 21.3369 0.00322298 21.6206C0.00107476 21.7467 0 21.8733 0 22C0 34.1503 9.84972 44 21.9999 44C32.1827 44 40.7498 37.0819 43.2572 27.6896Z" fill="#6640FF"/>
</svg>
