<svg width="50" height="50" viewBox="0 0 50 50" fill="none" xmlns="http://www.w3.org/2000/svg">
<path d="M34.3957 10.4375L30.3123 6.35416C27.3957 3.4375 22.604 3.4375 19.6873 6.35416L15.604 10.4375C14.7915 11.25 14.7915 12.5833 15.604 13.3958L23.5415 21.3333C24.354 22.1458 25.6665 22.1458 26.479 21.3333L34.4165 13.3958C35.2082 12.5833 35.2082 11.25 34.3957 10.4375Z" fill="#6A6BFF"/>
<path d="M10.4373 15.6042L6.354 19.6875C3.43734 22.6042 3.43734 27.3958 6.354 30.3125L10.4373 34.3958C11.2498 35.2083 12.5623 35.2083 13.3748 34.3958L21.3123 26.4583C22.1248 25.6458 22.1248 24.3333 21.3123 23.5208L13.3957 15.6042C12.5832 14.7917 11.2498 14.7917 10.4373 15.6042Z" fill="#6A6BFF"/>
<path d="M43.6458 19.6875L39.5625 15.6042C38.75 14.7917 37.4375 14.7917 36.625 15.6042L28.6875 23.5417C27.875 24.3542 27.875 25.6667 28.6875 26.4792L36.625 34.4167C37.4375 35.2292 38.75 35.2292 39.5625 34.4167L43.6458 30.3333C46.5625 27.3958 46.5625 22.6042 43.6458 19.6875Z" fill="#6A6BFF"/>
<path d="M15.6042 39.5625L19.6875 43.6458C22.6042 46.5625 27.3959 46.5625 30.3125 43.6458L34.3959 39.5625C35.2084 38.75 35.2084 37.4375 34.3959 36.625L26.4584 28.6875C25.6459 27.875 24.3334 27.875 23.5209 28.6875L15.5834 36.625C14.7917 37.4167 14.7917 38.75 15.6042 39.5625Z" fill="#6A6BFF"/>
</svg>
